



::::::::::::  EP1C Presents  ::::::::::::



::File:: Rango.2011.DVDSCR.AC3.XViD-EP1C



::Video Source:: 3LTON



::Language:::::: English

::IMDB:::::::::: http://www.imdb.com/title/tt1192628/



Rango is an ordinary chameleon who accidentally winds up in the town of

Dirt, a lawless outpost in the Wild West in desperate need of a new sheriff.



::Specs:::::::::



Format                           : AVI

Format/Info                      : Audio Video Interleave

File size                        : 1.37 GiB

Duration                         : 1h 56mn

Overall bit rate                 : 1 685 Kbps

Writing application              : VirtualDubMod 1.5.10.2 (build 2540/release)

Writing library                  : VirtualDubMod build 2540/release



Video

ID                               : 0

Format                           : MPEG-4 Visual

Format profile                   : Advanced Simple@L5

Format settings, BVOP            : Yes

Format settings, QPel            : No

Format settings, GMC             : No warppoints

Format settings, Matrix          : Default (MPEG)

Muxing mode                      : Packed bitstream

Codec ID                         : XVID

Codec ID/Hint                    : XviD

Duration                         : 1h 56mn

Bit rate                         : 1 548 Kbps

Width                            : 720 pixels

Height                           : 304 pixels

Display aspect ratio             : 2.35:1

Frame rate                       : 25.000 fps

Color space                      : YUV

Chroma subsampling               : 4:2:0

Bit depth                        : 8 bits

Scan type                        : Progressive

Bits/(Pixel*Frame)               : 0.283

Stream size                      : 1.26 GiB (92%)

Writing library                  : XviD 58



Audio

ID                               : 1

Format                           : MPEG Audio

Format version                   : Version 1

Format profile                   : Layer 3

Codec ID                         : 55

Codec ID/Hint                    : MP3

Duration                         : 1h 56mn

Bit rate mode                    : Constant

Bit rate                         : 128 Kbps

Channel(s)                       : 2 channels

Sampling rate                    : 44.1 KHz

Stream size                      : 107 MiB (8%)

Alignment                        : Split accross interleaves

Interleave, duration             : 40 ms (1.00 video frame)

Interleave, preload duration     : 500 ms



::NOTES:::::::::

Presents Rango DVDSCR.



Enjoy. //iNK



:: Got something we might be interested in? contact us: epic@hushmail.me ::



::::::::::::::::::::::::::::::::  RESPECT  :::::::::::::::::::::::::::::::::

IMAGiNE, Rx, FLAWL3SS, ViSiON, T0XiC, HiVE, bobwhite & All Our Friends!



                ::::::::::::::::  We Are  ::::::::::::::::  

              :::::: Surpassing the usual or ordinary ::::::

::::::::::::::::::    Heroic and impressive in quality    ::::::::::::::::::    

::::::::::::::::::::::::::::::::   EP1C   ::::::::::::::::::::::::::::::::



[img]http://noob.hu/2011/05/27/vlcsnap-2011-05-26-23h31m54s203_0.png[/img]
[img]http://noob.hu/2011/05/27/vlcsnap-2011-05-26-23h44m00s17.png[/img]
[img]http://noob.hu/2011/05/27/vlcsnap-2011-05-26-23h45m18s54.png[/img]

[/center]